<?xml version="1.0" encoding="utf-8"?>
<!-- Generator: Adobe Illustrator 14.0.0, SVG Export Plug-In  -->
<!DOCTYPE svg PUBLIC "-//W3C//DTD SVG 1.1//EN" "http://www.w3.org/Graphics/SVG/1.1/DTD/svg11.dtd" [
	<!ENTITY ns_flows "http://ns.adobe.com/Flows/1.0/">
]>
<svg version="1.1"
	 xmlns="http://www.w3.org/2000/svg" xmlns:xlink="http://www.w3.org/1999/xlink" xmlns:a="http://ns.adobe.com/AdobeSVGViewerExtensions/3.0/"
	 x="0px" y="0px" width="248px" height="240px" viewBox="-41.403 -34.521 248 240" enable-background="new -41.403 -34.521 248 240"
	 xml:space="preserve">
<defs>
</defs>
<path fill="#999999" d="M119.301,70.509c4.48-0.401,9.101-0.926,12.543-4.153c15.617-14.622,28.32-31.674,40.59-49.071
	c0.42-0.59,0.837-1.887,0.574-2.125c-0.976-0.914-1.588,0.247-2.129,0.833c-12.092,13.194-24.143,26.433-36.281,39.59
	c-0.871,0.949-1.971,3.32-3.262,2.066c-1.393-1.354,0.824-2.729,1.777-3.867c11.637-13.951,23.317-27.867,34.963-41.818
	c0.293-0.355,0.246-0.995,0.362-1.497c-0.478,0.147-1.114,0.143-1.411,0.455c-12.902,13.55-25.773,27.131-38.669,40.689
	c-0.601,0.633-1.326,1.805-2.302,0.905c-0.987-0.91,0.162-1.665,0.744-2.332c12.281-14.225,24.578-28.442,36.837-42.69
	c0.301-0.348,0.192-1.048,0.282-1.584c-0.479,0.185-1.08,0.238-1.412,0.563c-8.672,8.625-17.313,17.282-25.967,25.936
	c-0.168,0.204-8.479,8.888-12.848,13.203c-0.802,0.795-1.736,2.367-2.936,1.169c-1.184-1.177,0.494-2.007,1.199-2.773
	c12.274-13.338,24.59-26.641,36.85-39.995c0.512-0.559,1.021-2.016,0.813-2.186c-1.014-0.845-1.527,0.361-2.117,0.905
	c-9.4,8.622-19.063,16.982-28.076,25.994c-7.028,7.037-15.612,12.836-19.812,22.365c-2.151,4.881-1.346,10.8-5.024,15.165
	c-7.635,9.054-16.137,17.256-24.632,25.489c-22.434,21.739-46.307,41.711-71.969,59.528c-4.002,2.777-7.272,6.225-6.381,11.526
	c0.856,5.074,3.987,8.738,9.073,9.929c6.648,1.566,10.793-2.617,14.371-7.314c22.296-29.229,45.683-57.505,72.837-82.422
	C104.039,77.349,110.186,71.326,119.301,70.509 M126.816,61.042c0.783-0.675,3.221,0.575,4.9,0.945
	c-0.454,0.686-0.756,1.588-1.383,2.04c-4.162,2.979-8.48,5.479-13.976,2.753C121.588,67.774,123.705,63.707,126.816,61.042
	 M24.1,163.628c-2.102,4.245-5.213,7.234-11.977,8.491C17.915,169.62,21.072,166.717,24.1,163.628"/>
<path fill="#999999" d="M169.162,155.739c2.834,4.394,1.143,10.106-3.757,13.414c-4.903,3.31-10.522,1.994-14.597-3.06
	c-17.295-21.461-37.226-46.258-57.125-65.435c-13.246-12.766-9.285-6.363-17.499-8.413c-4.319-1.074-7.629-6.604-11.162-10.339
	C54.711,71.001,44.464,60.029,34.289,48.992C23.294,37.064,11.921,25.377,5.304,10.194C4.028,7.266,2.82,4.021,6.264,0.977
	c0.075-0.135,0.187-0.279,0.295-0.388c0.3-0.3,0.582-0.354,1.161-0.547L7.677,0c3.204,0.119,4.902,2.535,6.645,4.258
	c18.686,18.503,36.824,37.579,55.927,55.639c16.139,15.258,29.724,32.797,45.312,48.503c13.363,13.469,28.048,25.455,42.881,37.253
	C162.287,148.708,166.443,151.519,169.162,155.739"/>
<path fill="#FCFCFC" d="M76.458,37.833c2.606,1.573,6.349,2.769,10.359,2.769c5.948,0,9.424-2.958,9.424-7.236
	c0-3.902-2.406-6.23-8.488-8.37c-7.352-2.517-11.896-6.166-11.896-12.082c0-6.607,5.814-11.516,14.57-11.516
	c4.544,0,7.953,1.007,9.892,2.077l-1.604,4.468c-1.403-0.818-4.411-2.014-8.487-2.014c-6.149,0-8.488,3.461-8.488,6.355
	c0,3.965,2.74,5.915,8.955,8.181c7.619,2.769,11.43,6.229,11.43,12.46c0,6.544-5.08,12.271-15.707,12.271
	c-4.344,0-9.089-1.259-11.495-2.769L76.458,37.833z"/>
<path fill="#FCFCFC" d="M87.887,138.397H74.186v-4.657h33.35v4.657H93.769v37.756h-5.882V138.397z"/>
<path fill="#FCFCFC" d="M0.391,97.753c0.663,0.425,1.615,0.748,2.635,0.748c1.513,0,2.396-0.799,2.396-1.955
	c0-1.054-0.612-1.683-2.159-2.261c-1.87-0.68-3.025-1.666-3.025-3.264c0-1.785,1.479-3.11,3.706-3.11
	c1.156,0,2.022,0.271,2.516,0.561l-0.408,1.207c-0.357-0.221-1.122-0.544-2.159-0.544c-1.564,0-2.159,0.935-2.159,1.717
	c0,1.071,0.697,1.598,2.278,2.21c1.938,0.748,2.907,1.683,2.907,3.365c0,1.768-1.292,3.314-3.995,3.314
	c-1.105,0-2.312-0.34-2.924-0.747L0.391,97.753z"/>
<path fill="#FCFCFC" d="M10.506,88.233c0.714-0.118,1.649-0.221,2.838-0.221c1.462,0,2.533,0.34,3.213,0.952
	c0.612,0.544,1.003,1.377,1.003,2.396c0,1.037-0.306,1.853-0.884,2.448c-0.799,0.833-2.057,1.258-3.502,1.258
	c-0.442,0-0.85-0.018-1.19-0.103v4.59h-1.479V88.233z M11.984,93.758c0.323,0.085,0.731,0.119,1.224,0.119
	c1.785,0,2.873-0.884,2.873-2.431c0-1.529-1.088-2.261-2.703-2.261c-0.646,0-1.139,0.051-1.394,0.119V93.758z"/>
<path fill="#FCFCFC" d="M27.013,94.184h-4.437v4.13h4.964v1.241H21.08V88.098h6.204v1.241h-4.708v3.62h4.437V94.184z"/>
<path fill="#FCFCFC" d="M38.997,99.197c-0.527,0.272-1.632,0.544-3.026,0.544c-3.229,0-5.644-2.039-5.644-5.813
	c0-3.604,2.431-6.018,5.983-6.018c1.411,0,2.329,0.306,2.72,0.51l-0.374,1.207c-0.544-0.272-1.343-0.477-2.294-0.477
	c-2.686,0-4.471,1.717-4.471,4.726c0,2.822,1.615,4.606,4.386,4.606c0.918,0,1.835-0.187,2.431-0.476L38.997,99.197z"/>
<path fill="#FCFCFC" d="M43.893,88.098v11.457h-1.496V88.098H43.893z"/>
<path fill="#FCFCFC" d="M49.877,95.951l-1.19,3.604h-1.53l3.91-11.457h1.768l3.91,11.457h-1.581l-1.224-3.604H49.877z
	 M53.651,94.795l-1.139-3.298c-0.255-0.747-0.425-1.428-0.595-2.091h-0.034c-0.17,0.663-0.34,1.377-0.578,2.074l-1.122,3.314H53.651
	z"/>
<path fill="#FCFCFC" d="M59.958,88.098h1.496v10.216h4.896v1.241h-6.391V88.098z"/>
<path fill="#FCFCFC" d="M116.047,89.355h-3.484v-1.258h8.482v1.258h-3.502v10.199h-1.496V89.355z"/>
<path fill="#FCFCFC" d="M125.159,95.951l-1.19,3.604h-1.529l3.91-11.457h1.768l3.91,11.457h-1.582l-1.224-3.604H125.159z
	 M128.934,94.795l-1.14-3.298c-0.255-0.747-0.425-1.428-0.595-2.091h-0.034c-0.17,0.663-0.34,1.377-0.577,2.074l-1.123,3.314
	H128.934z"/>
<path fill="#FCFCFC" d="M135.088,97.753c0.662,0.425,1.614,0.748,2.635,0.748c1.512,0,2.396-0.799,2.396-1.955
	c0-1.054-0.612-1.683-2.159-2.261c-1.87-0.68-3.025-1.666-3.025-3.264c0-1.785,1.479-3.11,3.706-3.11
	c1.155,0,2.021,0.271,2.516,0.561l-0.408,1.207c-0.357-0.221-1.122-0.544-2.159-0.544c-1.563,0-2.159,0.935-2.159,1.717
	c0,1.071,0.697,1.598,2.278,2.21c1.938,0.748,2.907,1.683,2.907,3.365c0,1.768-1.293,3.314-3.995,3.314
	c-1.104,0-2.312-0.34-2.924-0.747L135.088,97.753z"/>
<path fill="#FCFCFC" d="M147.514,89.355h-3.484v-1.258h8.482v1.258h-3.502v10.199h-1.496V89.355z"/>
<path fill="#FCFCFC" d="M161.402,94.184h-4.437v4.13h4.964v1.241h-6.459V88.098h6.204v1.241h-4.709v3.62h4.437V94.184z"/>
</svg>
